<svg id="SvgjsSvg1023" xmlns="http://www.w3.org/2000/svg" version="1.1" width="17" height="11" viewBox="0 0 17 11"><title>google plus</title><path id="SvgjsPath1025" d="M1404 209.71h-1.54v-1.57h-1.55v1.57h-1.55v1.58h1.55v1.57h1.55v-1.57h1.54zm-6.48 0c.04.28.08.55.08.92 0 3.14-2.07 5.37-5.19 5.37-2.99 0-5.41-2.46-5.41-5.5s2.42-5.5 5.41-5.5c1.46 0 2.68.54 3.62 1.44l-1.47 1.44c-.4-.4-1.1-.85-2.15-.85-1.85 0-3.35 1.55-3.35 3.47 0 1.92 1.5 3.47 3.35 3.47 2.14 0 2.94-1.56 3.07-2.37h-3.07v-1.89z" fill="#819eb5" fill-opacity="1" transform="translate(-1387 -205)"/></svg>