<svg id="SvgjsSvg1014" xmlns="http://www.w3.org/2000/svg" version="1.1" width="20" height="21" viewBox="0 0 20 21"><title>instagram</title><path id="SvgjsPath1016" d="M263.02 583c-3.32 0-6.02 2.7-6.02 6.02v8.49c0 3.32 2.7 6.02 6.02 6.02h7.96c3.32 0 6.02-2.7 6.02-6.02v-8.49c0-3.32-2.7-6.02-6.02-6.02zm-3.85 6.02c0-2.12 1.73-3.85 3.85-3.85h7.96c2.12 0 3.85 1.73 3.85 3.85v8.49c0 2.12-1.73 3.85-3.85 3.85h-7.96c-2.12 0-3.85-1.73-3.85-3.85zm13.22.04a1.23 1.23 0 1 0 0-2.46 1.23 1.23 0 1 0 0 2.46zm-11.1 4.18c0 3.15 2.56 5.7 5.71 5.7 1.52 0 2.95-.59 4.02-1.67a5.819 5.819 0 0 0 1.68-4c.04-1.59-.45-2.97-1.42-4-1.02-1.08-2.48-1.68-4.24-1.74h-.17c-1.43 0-2.78.56-3.83 1.57a5.813 5.813 0 0 0-1.75 4.14zm3.6-2.23a2.85 2.85 0 0 1 1.99-.82h.08c1.04.03 1.86.34 2.38.9.61.65.72 1.51.71 2.12-.04 1.73-1.38 3.08-3.05 3.08-1.68 0-3.05-1.37-3.05-3.05 0-.84.35-1.65.94-2.23z" fill="#fff" fill-opacity="1" transform="translate(-257 -583)"/></svg>