<svg width="20" height="21" viewBox="0 0 20 21" version="1.1" xmlns="http://www.w3.org/2000/svg"><title>instagram</title><g id="Social-Icons" stroke="none" stroke-width="1" fill="none" fill-rule="evenodd"><path d="M318.02 72h7.96c3.32 0 6.02 2.7 6.02 6.02v8.493c0 3.32-2.7 6.02-6.02 6.02h-7.96c-3.32 0-6.02-2.7-6.02-6.02V78.02c0-3.32 2.7-6.02 6.02-6.02zm-3.846 14.513a3.851 3.851 0 0 0 3.846 3.847h7.96a3.851 3.851 0 0 0 3.846-3.847V78.02a3.851 3.851 0 0 0-3.846-3.846h-7.96a3.851 3.851 0 0 0-3.846 3.846v8.493zm11.99-9.685a1.227 1.227 0 1 1 2.453 0 1.227 1.227 0 0 1-2.454 0zm-8.122 1.276a5.465 5.465 0 0 1 3.997-1.57c1.759.052 3.225.653 4.242 1.738.966 1.031 1.458 2.413 1.423 3.996a5.83 5.83 0 0 1-1.686 4A5.619 5.619 0 0 1 322 87.945a5.711 5.711 0 0 1-5.705-5.705c0-1.55.637-3.058 1.747-4.135zm.91 4.135A3.052 3.052 0 0 0 322 85.287c1.672 0 3.01-1.351 3.048-3.077.014-.61-.098-1.473-.706-2.122-.522-.557-1.345-.867-2.381-.898h-.082c-.737 0-1.439.288-1.985.82a3.124 3.124 0 0 0-.942 2.229z" transform="translate(-312 -72)" id="instagram" fill="#000"/></g></svg>