<svg id="SvgjsSvg1020" xmlns="http://www.w3.org/2000/svg" version="1.1" width="12" height="12" viewBox="0 0 12 12"><title>Shape</title><path id="SvgjsPath1022" d="M1362.3 207.75h2.28v7.95h-2.28zm1.06-.99c-.82 0-1.36-.61-1.36-1.38 0-.78.55-1.38 1.39-1.38.85 0 1.36.59 1.38 1.38 0 .77-.53 1.38-1.39 1.38zm10.35 8.95v-4.43c0-2.46-1.28-3.6-2.9-3.6-1.31 0-2.13.78-2.28 1.32v-1.25h-2.56c.03.67 0 7.96 0 7.96h2.56v-4.31c0-.24-.01-.48.06-.65.17-.48.55-.97 1.23-.97.89 0 1.3.73 1.3 1.81v4.12z" fill="#819eb5" fill-opacity="1" transform="translate(-1362 -204)"/></svg>