<svg width="200" height="55" viewBox="0 0 200 55" version="1.1" xmlns="http://www.w3.org/2000/svg"><title>music-logo</title><g id="Symbols" stroke="none" stroke-width="1" fill="none" fill-rule="evenodd"><g id="main-nav" transform="translate(-34 -80)" fill-rule="nonzero" fill="#FFF"><g id="music-logo" transform="translate(34 80)"><g id="Layer_1"><path d="M7.601 48.182c1.081-.405 1.69-1.484 1.69-2.596 0-.843-.305-1.45-.777-1.956-.642-.708-1.757-1.079-2.872-1.079H.98v11.734h4.73c1.148 0 2.297-.371 2.939-1.08.506-.539.878-1.247.878-2.19 0-1.248-.743-2.429-1.926-2.833zM2.4 43.9h3.243c1.115 0 2.128.607 2.128 1.82 0 1.315-.844 1.855-2.06 1.855H2.431V43.9H2.4zm3.31 9.036H2.432v-4.08h3.311c1.25 0 2.298.776 2.298 2.057-.034 1.382-1.048 2.023-2.332 2.023z" id="Shape"/><path id="Rectangle-path" d="M11.453 42.585h1.52v11.7h-1.52z"/><path id="Shape" d="M15.473 54.285h7.838v-1.349h-6.352V48.89h5.575v-1.382h-5.575v-3.575h6.352v-1.348h-7.838zM32.466 52.026l-5.743-9.441h-1.655v11.7h1.418v-9.407l5.744 9.407h1.655v-11.7h-1.419zM36.453 54.285h7.838v-1.349h-6.352V48.89h5.575v-1.382h-5.575v-3.575h6.352v-1.348h-7.838zM53.446 52.026l-5.777-9.441h-1.655v11.7h1.452v-9.407l5.743 9.407h1.656v-11.7h-1.42zM66.723 47.744c-.642-.102-1.284-.203-1.96-.304-.878-.101-1.756-.607-1.756-1.652 0-.54.169-.91.473-1.281.506-.574 1.25-.81 2.094-.81.912 0 1.622.304 2.061.81.338.37.54.876.574 1.483h1.555a3.5 3.5 0 0 0-1.115-2.495c-.777-.742-1.892-1.112-3.04-1.112-1.217 0-2.264.404-3.075 1.146a3.214 3.214 0 0 0-1.014 2.326c0 1.855 1.385 2.833 3.142 3.102l1.858.27c1.385.202 1.96.978 1.96 1.888 0 .64-.237 1.045-.608 1.383-.54.505-1.284.674-2.196.674-.811 0-1.723-.202-2.264-.742-.473-.472-.81-1.146-.81-1.854h-1.555c0 1.112.507 2.124 1.25 2.798.811.742 1.926 1.113 3.345 1.113 1.25 0 2.5-.37 3.31-1.18.575-.573.98-1.281.98-2.26.068-1.82-1.25-3.034-3.209-3.303zM78.108 52.228c-.473.506-1.25.877-2.128.877-.811 0-1.588-.304-2.129-.877-.946-.978-.98-2.563-.98-3.81 0-1.248.034-2.799.98-3.81a3.022 3.022 0 0 1 2.129-.877c.878 0 1.655.337 2.128.843.372.438.642.978.642 1.619h1.52a3.879 3.879 0 0 0-1.148-2.664c-.71-.708-1.858-1.214-3.142-1.214-1.183 0-2.331.438-3.176 1.248-1.284 1.247-1.486 2.967-1.486 4.821 0 1.855.202 3.574 1.486 4.822.845.809 1.993 1.247 3.176 1.247 1.284 0 2.432-.54 3.142-1.247.675-.708 1.114-1.619 1.148-2.698h-1.52c-.034.675-.27 1.315-.642 1.72zM89.088 47.474H83.48v-4.89h-1.487v11.7h1.487V48.89h5.608v5.395h1.486v-11.7h-1.486zM97.23 42.383c-1.183 0-2.331.438-3.176 1.247-1.284 1.248-1.52 2.967-1.52 4.822 0 1.854.236 3.574 1.52 4.821.845.81 1.993 1.248 3.176 1.248 1.182 0 2.33-.439 3.175-1.248 1.284-1.247 1.52-2.967 1.52-4.821 0-1.855-.236-3.574-1.52-4.822-.844-.843-1.993-1.247-3.175-1.247zm2.128 9.845a3.022 3.022 0 0 1-2.128.877c-.811 0-1.588-.304-2.129-.877-.946-.978-1.013-2.563-1.013-3.81 0-1.248.034-2.799 1.013-3.81a3.022 3.022 0 0 1 2.129-.877c.81 0 1.588.304 2.128.877.946.978 1.014 2.562 1.014 3.81 0 1.247-.034 2.832-1.014 3.81zM107.973 42.383c-1.182 0-2.331.438-3.176 1.247-1.283 1.248-1.52 2.967-1.52 4.822 0 1.854.237 3.574 1.52 4.821.845.81 1.994 1.248 3.176 1.248 1.182 0 2.331-.439 3.176-1.248 1.283-1.247 1.52-2.967 1.52-4.821 0-1.855-.237-3.574-1.52-4.822-.845-.843-1.994-1.247-3.176-1.247zm2.162 9.845a3.022 3.022 0 0 1-2.128.877c-.811 0-1.588-.304-2.129-.877-.946-.978-1.013-2.563-1.013-3.81 0-1.248.034-2.799 1.013-3.81a3.022 3.022 0 0 1 2.129-.877c.81 0 1.588.304 2.128.877.946.978 1.014 2.562 1.014 3.81 0 1.247-.068 2.832-1.014 3.81zM116.081 42.585h-1.453v11.7h7.095v-1.383h-5.642zM131.318 42.383c-1.183 0-2.332.438-3.176 1.247-1.284 1.248-1.52 2.967-1.52 4.822 0 1.854.236 3.574 1.52 4.821.844.81 1.993 1.248 3.176 1.248 1.182 0 2.33-.439 3.175-1.248 1.284-1.247 1.52-2.967 1.52-4.821 0-1.855-.236-3.574-1.52-4.822-.878-.843-2.027-1.247-3.175-1.247zm2.094 9.845a3.022 3.022 0 0 1-2.128.877c-.811 0-1.588-.304-2.129-.877-.946-.978-1.013-2.563-1.013-3.81 0-1.248.034-2.799 1.013-3.81a3.022 3.022 0 0 1 2.129-.877c.81 0 1.588.304 2.128.877.946.978 1.014 2.562 1.014 3.81 0 1.247-.034 2.832-1.014 3.81zM137.94 54.285h1.486v-5.16h5.439v-1.381h-5.44v-3.81h6.116v-1.35h-7.602zM157.128 50.913l-3.074-8.328h-2.905v11.7h2.094v-8.463l3.007 8.294h1.588l3.04-8.193v8.362h2.061v-11.7h-2.736zM171.96 49.767c0 1.652-.778 2.798-2.467 2.798s-2.466-1.146-2.466-2.798v-7.182h-2.128V49.8c0 2.799 1.587 4.72 4.594 4.72 3.007 0 4.595-1.921 4.595-4.72v-7.215h-2.129v7.182zM181.453 47.406c-.777-.1-1.79-.168-2.534-.303-.71-.101-1.183-.506-1.183-1.281 0-.439.136-.742.406-.978.473-.506 1.25-.64 1.892-.64.642 0 1.419.235 1.79.64.27.303.507.742.507 1.146h2.196c0-.978-.507-1.82-1.182-2.495-.811-.742-2.027-1.146-3.277-1.146-1.386 0-2.67.472-3.446 1.247-.608.607-1.014 1.383-1.014 2.327 0 1.955 1.351 3 2.973 3.27.777.135 1.79.169 2.601.304.744.135 1.386.54 1.386 1.382 0 .573-.203.843-.473 1.113-.44.472-1.217.64-2.027.64-.676 0-1.487-.134-1.96-.64a2.053 2.053 0 0 1-.608-1.45h-2.196c0 1.113.54 2.09 1.216 2.731.946.877 2.264 1.214 3.514 1.214 1.452 0 2.804-.37 3.716-1.248.574-.573.98-1.348.98-2.427-.068-2.023-1.52-3.136-3.277-3.406z"/><path id="Rectangle-path" d="M186.182 42.585h2.162v11.7h-2.162z"/><path d="M196.486 51.857c-.371.472-1.047.742-1.756.742-.676 0-1.352-.27-1.79-.776-.812-.843-.812-2.292-.812-3.371 0-1.08 0-2.53.811-3.372a2.432 2.432 0 0 1 1.79-.776c.744 0 1.386.236 1.757.742.305.371.473.742.541 1.248h2.196c-.101-.91-.44-1.855-1.115-2.53-.878-.876-2.094-1.348-3.344-1.348s-2.433.439-3.311 1.315c-1.284 1.281-1.453 2.832-1.453 4.754 0 1.922.169 3.473 1.453 4.754.878.877 2.06 1.315 3.31 1.315s2.467-.505 3.345-1.382c.676-.708 1.014-1.618 1.115-2.562h-2.196c-.034.472-.236.876-.54 1.247zM1.115 1.82v.911L3.378 5.26v17.533l-3.074.843v1.045h8.31v-1.045l-2.6-.675-.676-.843v-14.6L19.932 24.85h1.284V4.012l3.108-.91V1.989h-8.48v1.248l2.703.674.642.81v13.857-.034h-.169L4.865 1.821zM32.365 25.052c-4.122 0-8.074-2.63-8.074-8.26 0-5.564 4.189-8.396 8.074-8.396 4.054 0 8.142 2.528 8.142 8.125-.034 5.361-4.358 8.53-8.142 8.53zm4.932-8.059c0-3.843-2.094-7.114-5.405-7.114-2.94 0-4.426 2.563-4.426 6.406 0 3.844 1.858 7.182 5.338 7.182 2.94.034 4.493-2.63 4.493-6.474zM81.926 15.375c0-3.844-2.162-4.585-4.662-4.585-2.129 0-3.514 1.584-3.514 1.584v9.846l.676.809 2.23.775v.877h-7.974v-.877l2.264-.843V6.44c0-3-.777-3.81-2.399-3.81v-.81L73.615.102h.338s-.17 3.54-.17 6.17v4.755s3.278-2.63 5.575-2.63c2.804 0 5.44 1.18 5.44 5.327v8.497l.675.809 2.23.775v.877H79.73v-.877l2.196-.809v-7.62zM114.324 15.88c0 4.755 2.703 6.744 5.811 6.744 1.926 0 4.223-.809 4.223-.809l.338.64c-.81.81-3.142 2.563-6.014 2.563-3.918 0-7.398-2.9-7.398-8.26 0-4.856 3.344-8.396 7.567-8.396 3.244 0 5.811 1.955 5.811 5.63 0 .945-.169 1.821-.169 1.821l-10.169.068zm5.068-1.314c1.655-.068 2.23-.371 2.23-2.057 0-1.45-1.014-2.529-3.21-2.529-2.297 0-4.054 2.023-4.054 4.754l5.034-.168zM128.412 24.445c-.236-.101-.844-.438-.878-1.18l-.203-3.237h1.52c.406 2.225 1.926 3.675 3.885 3.675 1.994 0 2.77-1.011 2.77-2.394 0-1.315-1.047-1.989-2.364-2.663l-1.757-.877c-2.5-1.248-3.75-2.293-3.75-4.754 0-3.102 2.23-4.552 5.676-4.552 2.432 0 4.324.91 4.324.91l-.44 4.013h-1.418c0-2.495-1.013-3.44-3.142-3.44-1.419 0-2.703.54-2.703 1.922 0 1.08.44 1.585 3.176 3.001l1.554.81c2.804 1.45 3.615 2.63 3.615 4.956 0 2.798-2.804 4.484-5.574 4.484-1.757-.067-3.277-.27-4.29-.674zM155.405 15.88c0 4.755 2.703 6.744 5.811 6.744 1.926 0 4.223-.809 4.223-.809l.338.64c-.81.81-3.142 2.563-6.013 2.563-3.92 0-7.4-2.9-7.4-8.26 0-4.856 3.345-8.396 7.568-8.396 3.244 0 5.811 1.955 5.811 5.63 0 .945-.169 1.821-.169 1.821l-10.169.068zm5.034-1.314c1.656-.068 2.23-.371 2.23-2.057 0-1.45-1.014-2.529-3.21-2.529-2.297 0-4.054 2.023-4.054 4.754l5.034-.168zM197.669 23.029l-.676-.81.034-8.665c0-4.012-2.601-5.125-5.304-5.125-2.264 0-5.473 2.63-5.473 2.63 0-1.45.068-2.73.068-2.73h-.27l-5 1.82v.81c1.925 0 2.432 1.719 2.432 4.787v7.182l-2.264.843v.876h7.906l.067-.876-2.23-.776-.675-.81V12.34s1.216-1.618 3.344-1.618c2.23 0 4.527.81 4.527 4.586l-.1 7.62-2.197.809v.877h7.906l.067-.877-2.162-.708zM102.399 24.85l-3.683-10.183-4.223 10.183h-1.452l-4.122-12.577c-.574-1.585-.912-2.495-2.027-2.495v-.944h6.79v.978l-2.06.674 3.108 10.419 2.702-6.508.642-1.652-.912-2.664-1.216-.303v-.944h6.52v1.011l-2.06.607 3.48 10.419L107.5 10.52l-2.331-.81v-.876h6.149v.944c-1.42.169-2.095.54-3.176 3.338L104.02 24.85H102.4zM66.723 22.32s-.946.608-2.399.608c-1.554 0-2.939-.843-2.905-3.001l.135-8.969h5.101l.068-.573.338-2.799-.642-.1-.507 1.078-.27.236-4.054.169h-.034v-4.08l-1.993.337-.845 3.878-2.804.27v1.348c1.554 0 2.804.135 2.804 1.618 0 1.484-.135 6.103-.135 7.924 0 3.507 1.351 4.788 3.581 4.788 1.926 0 3.514-.81 4.933-1.956l-.372-.775zM150.777 22.32s-.946.608-2.399.608c-1.554 0-2.939-.843-2.905-3.001l.135-8.969h5.068l.067-.573.338-2.799-.642-.1-.507 1.078-.27.236-4.02.135V4.89l-1.993.337-.845 3.878-2.804.27v1.348c1.554 0 2.804.135 2.804 1.618 0 1.484-.135 6.103-.135 7.924 0 3.507 1.351 4.788 3.581 4.788 1.926 0 3.514-.81 4.932-1.956l-.405-.775zM53.953 8.598s-.608-.202-1.723-.202c-2.399 0-4.899 3.776-4.899 3.776 0-2.09.068-3.878.068-3.878h-.27l-4.9 1.821v.81c1.859 0 2.433 1.685 2.433 4.517v7.486l-2.263.843v.876h7.905v-.876l-2.23-.776-.675-.81V14.87c0-2.259 1.79-3.54 3.716-3.54.405 0 .81.101 1.149.202l.54.81.676.033.473-3.776zM179.527 8.598s-.608-.202-1.723-.202c-2.399 0-4.899 3.776-4.899 3.776 0-2.09.068-3.878.068-3.878h-.27l-4.899 1.821v.81c1.858 0 2.432 1.685 2.432 4.517v7.486l-2.263.843v.876h7.905v-.876l-2.23-.776-.675-.81V14.87c0-2.259 1.79-3.54 3.716-3.54.406 0 .811.101 1.149.202l.54.81.676.033.473-3.776zM.304 32.503h199.56v1.18H.305z" id="Shape"/></g></g></g></g></svg>