<svg id="SvgjsSvg1000" xmlns="http://www.w3.org/2000/svg" version="1.1" width="12" height="11" viewBox="0 0 12 11"><title>Path</title><path id="SvgjsPath1007" d="M86.08 959.07l-.05-.15c-.12-.36-.51-.73-.87-.82l-1.33-.37c-.36-.1-.88.04-1.14.3l-.48.48a5.086 5.086 0 0 1-3.59-3.59l.48-.48c.26-.27.39-.78.29-1.14l-.36-1.33c-.1-.36-.47-.75-.82-.87l-.15-.05c-.36-.12-.86 0-1.13.26l-.72.72c-.13.13-.21.5-.21.5a8.54 8.54 0 0 0 2.49 6.11 8.509 8.509 0 0 0 6.09 2.48c.01 0 .39-.08.51-.21l.73-.72c.26-.26.38-.76.26-1.12" fill="#000" fill-opacity="1" transform="translate(-75 -951)"/></svg>