<svg version="1.1" id="Calque_1" xmlns="http://www.w3.org/2000/svg" x="0" y="0" width="92.985" height="53.006" viewBox="0 0 92.985 53.006" xml:space="preserve"><linearGradient id="SVGID_1_" gradientUnits="userSpaceOnUse" x1="46.493" y1="0" x2="46.493" y2="53.006"><stop offset="0" stop-color="#f79810"/><stop offset="1" stop-color="#f8310e"/></linearGradient><path fill="url(#SVGID_1_)" d="M1.053 24.152c-.194 0-.348.15-.373.364L0 29.681l.68 5.076c.025.214.179.363.373.363.188 0 .341-.148.371-.361v-.001.001l.806-5.078-.806-5.166c-.029-.213-.184-.363-.371-.363zm3.824-2.822c-.032-.222-.191-.375-.387-.375-.197 0-.36.158-.387.375l-.914 8.351.914 8.166c.026.219.189.377.387.377.195 0 .354-.154.386-.375l1.04-8.168-1.039-8.351zm14.404-7.703a.717.717 0 0 0-.703.697l-.728 15.364.728 9.929a.717.717 0 0 0 .703.694c.373 0 .682-.307.704-.696v.003l.823-9.93-.823-15.364c-.022-.39-.331-.697-.704-.697zm-7.455 5.34c-.288 0-.523.23-.546.537l-.82 10.18.82 9.849a.558.558 0 0 0 .546.535c.285 0 .52-.23.545-.535l.932-9.849-.932-10.182c-.025-.305-.26-.535-.545-.535zM26.857 40.31a.873.873 0 0 0 .862-.855l.714-9.762-.713-20.455a.873.873 0 0 0-.862-.855.87.87 0 0 0-.863.856l-.633 20.453.633 9.766a.868.868 0 0 0 .862.852zm15.51.046c.64 0 1.168-.527 1.18-1.175v.007-.007l.498-9.482-.498-23.624a1.194 1.194 0 0 0-1.18-1.175c-.641 0-1.17.527-1.18 1.176l-.445 23.615.445 9.496c.01.642.54 1.169 1.18 1.169zm-7.814-.037c.557 0 1.006-.447 1.021-1.017v.007l.606-9.614-.607-20.603a1.027 1.027 0 0 0-1.021-1.016c-.561 0-1.01.446-1.022 1.016l-.539 20.604.54 9.612a1.023 1.023 0 0 0 1.022 1.011zm-19.014-.09c.331 0 .599-.265.624-.614l.878-9.931-.878-9.447c-.024-.349-.292-.612-.624-.612-.336 0-.604.265-.625.616l-.773 9.443.773 9.93c.022.35.289.615.625.615zm-7.396-.544c.242 0 .438-.191.466-.455l.986-9.548-.985-9.908c-.029-.265-.225-.456-.467-.456-.245 0-.441.192-.466.456l-.868 9.908.868 9.546c.024.265.22.457.466.457zM38.445 8.749c-.605 0-1.09.481-1.102 1.097l-.492 19.851.492 9.552a1.1 1.1 0 0 0 2.202-.007v.008l.552-9.552-.552-19.854a1.103 1.103 0 0 0-1.1-1.095zM23.055 40.33a.798.798 0 0 0 .783-.776l.768-9.863-.768-18.878c-.021-.436-.365-.776-.783-.776a.795.795 0 0 0-.784.776l-.68 18.878.681 9.867a.792.792 0 0 0 .783.772zm8.576-.931v-.005l.66-9.7-.66-21.144a.95.95 0 0 0-.941-.937.947.947 0 0 0-.942.937l-.586 21.143.587 9.705c.014.52.428.931.941.931a.949.949 0 0 0 .941-.934v.004zm49.918-21.893c-1.567 0-3.062.317-4.424.888C76.215 8.086 67.571 0 57.027 0c-2.58 0-5.095.508-7.316 1.367-.863.334-1.093.678-1.101 1.345v36.3c.009.7.552 1.283 1.235 1.352.029.003 31.499.019 31.703.019 6.316 0 11.437-5.121 11.437-11.438s-5.12-11.439-11.436-11.439zM46.272 2.68c-.687 0-1.251.564-1.261 1.257l-.516 25.765.517 9.351a1.268 1.268 0 0 0 1.26 1.246c.685 0 1.249-.563 1.259-1.256v.011l.561-9.352-.561-25.767a1.272 1.272 0 0 0-1.259-1.255zM9.236 47.654c-1.353-.318-1.719-.488-1.719-1.024 0-.378.305-.769 1.219-.769.781 0 1.391.317 1.939.878l1.231-1.194c-.805-.841-1.78-1.341-3.108-1.341-1.684 0-3.049.951-3.049 2.5 0 1.682 1.098 2.182 2.67 2.547 1.609.365 1.902.61 1.902 1.159 0 .646-.477.927-1.487.927-.817 0-1.585-.28-2.183-.977L5.42 51.458c.646.951 1.891 1.548 3.316 1.548 2.33 0 3.354-1.097 3.354-2.718 0-1.854-1.5-2.317-2.854-2.634zm7.854-3.45c-2.328 0-3.705 1.804-3.705 4.401s1.377 4.4 3.705 4.4 3.707-1.803 3.707-4.4-1.379-4.401-3.707-4.401zm0 7.108c-1.377 0-1.951-1.183-1.951-2.706 0-1.524.574-2.707 1.951-2.707 1.379 0 1.951 1.183 1.951 2.707 0 1.523-.572 2.706-1.951 2.706zm10.596-2.182c0 1.365-.672 2.207-1.756 2.207-1.085 0-1.743-.866-1.743-2.231v-4.769h-1.708v4.793c0 2.486 1.391 3.876 3.451 3.876 2.17 0 3.463-1.427 3.463-3.9v-4.769h-1.707v4.793zm9.07-1.183c0 .476.024 1.548.024 1.865-.11-.22-.39-.646-.597-.964l-3.025-4.512h-1.633v8.536h1.683v-3.756c0-.476-.024-1.548-.024-1.865.109.219.391.646.597.964l3.134 4.657h1.524v-8.536h-1.683v3.611zm6.547-3.61h-2.67v8.536h2.547c2.195 0 4.366-1.269 4.366-4.268 0-3.122-1.805-4.268-4.243-4.268zm-.123 6.878h-.84v-5.219h.902c1.805 0 2.549.865 2.549 2.609 0 1.561-.818 2.61-2.611 2.61zm9.645-5.317c.768 0 1.256.342 1.561.927l1.585-.731c-.537-1.109-1.513-1.89-3.122-1.89-2.229 0-3.791 1.804-3.791 4.401 0 2.694 1.499 4.4 3.73 4.4 1.549 0 2.573-.719 3.158-1.926l-1.438-.854c-.451.757-.903 1.086-1.671 1.086-1.28 0-2.024-1.171-2.024-2.706-.001-1.584.733-2.707 2.012-2.707zm6.331-1.561h-1.707v8.536h5.13v-1.684h-3.423v-6.852zm7.92-.133c-2.33 0-3.707 1.804-3.707 4.401s1.377 4.4 3.707 4.4c2.328 0 3.706-1.803 3.706-4.4s-1.378-4.401-3.706-4.401zm0 7.108c-1.379 0-1.951-1.183-1.951-2.706 0-1.524.572-2.707 1.951-2.707 1.376 0 1.949 1.183 1.949 2.707 0 1.523-.573 2.706-1.949 2.706zM77.67 49.13c0 1.365-.669 2.207-1.754 2.207-1.087 0-1.744-.866-1.744-2.231v-4.769h-1.707v4.793c0 2.486 1.39 3.876 3.451 3.876 2.17 0 3.462-1.427 3.462-3.9v-4.769H77.67v4.793zm6.511-4.793h-2.669v8.536h2.547c2.196 0 4.365-1.269 4.365-4.268 0-3.122-1.804-4.268-4.243-4.268zm-.122 6.878h-.841v-5.219h.903c1.803 0 2.547.865 2.547 2.609 0 1.561-.817 2.61-2.609 2.61z"/></svg>