<svg id="SvgjsSvg1008" xmlns="http://www.w3.org/2000/svg" version="1.1" width="21" height="18" viewBox="0 0 21 18"><title>twitter</title><path id="SvgjsPath1010" d="M130.53 586.85a4.55 4.55 0 0 0 1.89-2.52c-.83.52-1.75.9-2.74 1.11-.78-.89-1.9-1.44-3.14-1.44-2.38 0-4.31 2.03-4.31 4.54 0 .36.04.71.11 1.04-3.58-.19-6.75-2-8.88-4.75-.37.67-.58 1.45-.58 2.29 0 1.57.76 2.96 1.92 3.78-.71-.02-1.38-.23-1.96-.57v.06c0 2.2 1.49 4.04 3.46 4.45-.36.11-.74.16-1.14.16-.27 0-.54-.03-.81-.08.55 1.81 2.14 3.12 4.03 3.16-1.48 1.22-3.33 1.94-5.35 1.94-.35 0-.69-.02-1.03-.06 1.91 1.29 4.17 2.04 6.6 2.04 7.93 0 12.26-6.92 12.26-12.93 0-.2 0-.39-.01-.59a9.11 9.11 0 0 0 2.15-2.35c-.77.36-1.6.61-2.47.72z" fill="#fff" fill-opacity="1" transform="translate(-112 -584)"/></svg>