<svg id="SvgjsSvg1014" xmlns="http://www.w3.org/2000/svg" version="1.1" width="12" height="11" viewBox="0 0 12 11"><title>twitter</title><path id="SvgjsPath1016" d="M1347.59 206.74c.5-.34.9-.89 1.08-1.54-.48.32-1 .55-1.57.68-.44-.54-1.08-.88-1.79-.88-1.36 0-2.46 1.24-2.46 2.78 0 .21.02.43.06.63-2.05-.12-3.86-1.22-5.07-2.9-.22.41-.34.89-.34 1.39 0 .97.44 1.82 1.1 2.32-.41-.02-.79-.14-1.12-.35v.03c0 1.35.85 2.47 1.98 2.73-.21.06-.43.09-.65.09-.16 0-.32-.01-.46-.05.31 1.11 1.22 1.91 2.3 1.93-.85.75-1.91 1.19-3.06 1.19-.2 0-.4-.01-.59-.04 1.09.79 2.38 1.25 3.77 1.25 4.53 0 7.01-4.23 7.01-7.9 0-.12 0-.24-.01-.36.48-.39.9-.88 1.23-1.44-.44.22-.92.37-1.41.44z" fill="#819eb5" fill-opacity="1" transform="translate(-1337 -205)"/></svg>