<svg width="34" height="28" viewBox="0 0 34 28" version="1.1" xmlns="http://www.w3.org/2000/svg"><title>high-volume</title><g id="Desktop" stroke="none" stroke-width="1" fill="none" fill-rule="evenodd"><g id="Concerts-&amp;-Events" transform="translate(-608 -701)" fill="#FFF"><g id="Group-6" transform="translate(604 699)"><g id="Group-15"><path d="M32.375 2.4a22.32 22.32 0 0 1 4.779 13.86 22.32 22.32 0 0 1-4.699 13.757l-1.352-1.016c2.771-3.57 4.435-7.975 4.435-12.741 0-4.819-1.7-9.269-4.527-12.86l1.364-1zm-5.188 23.656c2.186-2.719 3.505-6.114 3.505-9.796 0-3.756-1.372-7.213-3.637-9.958l-1.17.858c1.993 2.546 3.192 5.693 3.192 9.1 0 3.327-1.144 6.407-3.054 8.921l1.164.875zM22.43 22.48a9.436 9.436 0 0 0 .27-12.984l-1.171.859a8.595 8.595 0 0 1 1.977 5.49c0 2.215-.84 4.237-2.222 5.774l1.146.861zM4.846 12.26v8l5.654.749v-9.6l-5.654.85zm5.654-.8v9.6l8.077 5.6V5.86l-8.077 5.6z" id="high-volume"/></g></g></g></g></svg>