<svg width="24" height="17" viewBox="0 0 24 17" version="1.1" xmlns="http://www.w3.org/2000/svg"><title>Fill 1</title><g id="Social-Icons" stroke="none" stroke-width="1" fill="none" fill-rule="evenodd"><path d="M141.522 148.552l-.001-6.743 6.484 3.384-6.483 3.36zm14.237-7.91s-.234-1.655-.954-2.383c-.913-.956-1.935-.96-2.404-1.016-3.358-.243-8.396-.243-8.396-.243h-.01s-5.038 0-8.397.243c-.469.056-1.491.06-2.405 1.016-.719.728-.953 2.382-.953 2.382s-.24 1.943-.24 3.884v1.821c0 1.943.24 3.884.24 3.884s.234 1.654.953 2.383c.914.956 2.113.925 2.647 1.025 1.92.185 8.16.242 8.16.242s5.043-.008 8.4-.251c.47-.056 1.492-.06 2.405-1.016.72-.729.954-2.383.954-2.383s.24-1.941.24-3.884v-1.82c0-1.942-.24-3.885-.24-3.885z" transform="translate(-132 -137)" id="Fill-1" fill="#E14E42"/></g></svg>