<svg id="SvgjsSvg1011" xmlns="http://www.w3.org/2000/svg" version="1.1" width="24" height="17" viewBox="0 0 24 17"><title>Fill 1</title><path id="SvgjsPath1013" d="M192.52 596.55v-6.74l6.49 3.38zm13.29-10.29c-.92-.96-1.94-.96-2.41-1.02-3.36-.24-8.4-.24-8.4-.24h-.01s-5.03 0-8.39.24c-.47.06-1.49.06-2.41 1.02-.72.73-.95 2.38-.95 2.38s-.24 1.94-.24 3.89v1.82c0 1.94.24 3.88.24 3.88s.23 1.65.95 2.38c.92.96 2.12.93 2.65 1.03 1.92.18 8.16.24 8.16.24s5.04-.01 8.4-.25c.47-.06 1.49-.06 2.41-1.02.71-.73.95-2.38.95-2.38s.24-1.94.24-3.88v-1.82c0-1.95-.24-3.89-.24-3.89s-.24-1.65-.95-2.38z" fill="#fff" fill-opacity="1" transform="translate(-183 -585)"/></svg>